<?xml version="1.0" encoding="UTF-8"?>
<svg xmlns="http://www.w3.org/2000/svg" viewBox="0 0 64 64" fill="none">
  <defs>
    <linearGradient id="f" x1="8" y1="6" x2="56" y2="58" gradientUnits="userSpaceOnUse">
      <stop stop-color="#00D4FF"/>
      <stop offset="0.5" stop-color="#6D7CFF"/>
      <stop offset="1" stop-color="#8B5CF6"/>
    </linearGradient>
    <radialGradient id="g" cx="50%" cy="48%" r="50%">
      <stop offset="0%" stop-color="#00D4FF" stop-opacity="0.5"/>
      <stop offset="100%" stop-color="#050816" stop-opacity="0"/>
    </radialGradient>
  </defs>
  <rect width="64" height="64" rx="16" fill="#050816"/>
  <circle cx="32" cy="32" r="24" fill="url(#g)"/>
  <circle cx="32" cy="32" r="18" stroke="#00D4FF" stroke-opacity="0.25" stroke-width="1" stroke-dasharray="2 3"/>
  <path d="M10 44 C18 30, 24 46, 32 32 S46 16, 54 22" stroke="url(#f)" stroke-width="2.2" stroke-linecap="round" fill="none"/>
  <g stroke="#00D4FF" stroke-opacity="0.55" stroke-width="1">
    <path d="M32 16 L44 23 L48 38 L32 48 L16 38 L20 23 Z"/>
  </g>
  <circle cx="32" cy="16" r="2.2" fill="#00D4FF"/>
  <circle cx="44" cy="23" r="2" fill="#8B5CF6"/>
  <circle cx="48" cy="38" r="2.2" fill="#00D4FF"/>
  <circle cx="32" cy="48" r="2" fill="#FFC857"/>
  <circle cx="16" cy="38" r="2.2" fill="#8B5CF6"/>
  <circle cx="20" cy="23" r="2" fill="#00D4FF"/>
  <circle cx="32" cy="32" r="5.5" fill="url(#f)"/>
  <circle cx="32" cy="32" r="2.8" fill="#F4FBFF"/>
  <circle cx="32" cy="32" r="1.2" fill="#FFC857"/>
</svg>
